<svg xmlns="http://www.w3.org/2000/svg" version="1.1" xmlns:xlink="http://www.w3.org/1999/xlink" viewBox="0 0 200 200"><rect width="200" height="200" fill="url('#gradient')"></rect><defs><linearGradient id="gradient" gradientTransform="rotate(281 0.5 0.5)"><stop offset="0%" stop-color="#f1ff00"></stop><stop offset="100%" stop-color="#fbfbfb"></stop></linearGradient></defs><g><g fill="#000000" transform="matrix(6.492753623188406,0,0,6.492753623188406,24.747184847576023,146.5186549615169)" stroke="#fbfbfb" stroke-width="0.4"><path d="M7.42-3.77L7.42-3.77Q7.42-4.54 7.04-4.98Q6.66-5.42 5.70-5.81Q4.75-6.20 3.94-6.60Q3.13-7.00 2.54-7.53Q1.95-8.06 1.64-8.75Q1.33-9.44 1.33-10.43L1.33-10.43Q1.33-12.08 2.44-13.15Q3.55-14.22 5.41-14.39L5.41-14.39L5.41-16.46L6.96-16.46L6.96-14.36Q8.75-14.09 9.77-12.89Q10.79-11.68 10.79-9.82L10.79-9.82L7.49-9.82Q7.49-10.84 7.10-11.39Q6.71-11.93 5.99-11.93L5.99-11.93Q5.34-11.93 4.99-11.53Q4.63-11.12 4.63-10.41L4.63-10.41Q4.63-9.69 5.04-9.26Q5.45-8.84 6.36-8.45Q7.27-8.07 8.07-7.65Q8.88-7.24 9.46-6.71Q10.05-6.18 10.38-5.48Q10.71-4.78 10.71-3.79L10.71-3.79Q10.71-2.12 9.65-1.06Q8.59-0.01 6.77 0.17L6.77 0.17L6.77 2.13L5.21 2.13L5.21 0.16Q3.09-0.07 1.95-1.30Q0.81-2.54 0.81-4.56L0.81-4.56L4.10-4.56Q4.10-3.45 4.59-2.87Q5.09-2.29 6.00-2.29L6.00-2.29Q6.66-2.29 7.04-2.68Q7.42-3.08 7.42-3.77ZM19.00-3.77L19.00-3.77Q19.00-4.54 18.62-4.98Q18.24-5.42 17.29-5.81Q16.33-6.20 15.52-6.60Q14.71-7.00 14.12-7.53Q13.54-8.06 13.22-8.75Q12.91-9.44 12.91-10.43L12.91-10.43Q12.91-12.08 14.02-13.15Q15.14-14.22 16.99-14.39L16.99-14.39L16.99-16.46L18.54-16.46L18.54-14.36Q20.33-14.09 21.35-12.89Q22.37-11.68 22.37-9.82L22.37-9.82L19.07-9.82Q19.07-10.84 18.68-11.39Q18.29-11.93 17.57-11.93L17.57-11.93Q16.92-11.93 16.57-11.53Q16.21-11.12 16.21-10.41L16.21-10.41Q16.21-9.69 16.62-9.26Q17.03-8.84 17.94-8.45Q18.85-8.07 19.65-7.65Q20.46-7.24 21.04-6.71Q21.63-6.18 21.96-5.48Q22.29-4.78 22.29-3.79L22.29-3.79Q22.29-2.12 21.24-1.06Q20.18-0.01 18.35 0.17L18.35 0.17L18.35 2.13L16.80 2.13L16.80 0.16Q14.67-0.07 13.53-1.30Q12.39-2.54 12.39-4.56L12.39-4.56L15.68-4.56Q15.68-3.45 16.18-2.87Q16.67-2.29 17.58-2.29L17.58-2.29Q18.24-2.29 18.62-2.68Q19.00-3.08 19.00-3.77Z"></path></g></g></svg>